<svg width="712" height="617" viewBox="0 0 712 617" fill="none" xmlns="http://www.w3.org/2000/svg">
<g clip-path="url(#clip0_0_6)">
<path d="M168.078 508.295C155.561 511.884 142.056 510.477 129.997 504.327C125.973 502.272 121.114 498.088 115.554 491.891C111.994 487.893 109.276 483.128 107.599 477.945C105.922 472.761 105.329 467.293 105.864 461.941C104.608 464.516 103.092 466.926 101.343 469.13L100.462 470.256L99.981 468.819C99.6674 467.885 99.3756 466.948 99.1135 466.034C97.5693 460.648 99.7347 454.113 96.5859 449.629C83.3144 430.728 54.3234 416.476 78.3639 374.441C80.5878 370.553 74.7444 365.729 73.4412 361.184C60.6699 316.646 85.8561 237.118 124.309 259.183C146.755 272.063 186.492 274.39 210.466 294.382L210.9 295.054L210.326 295.533C207.401 298.043 204.149 300.09 200.662 301.615C204.774 301.367 208.823 300.596 212.724 299.319L213.329 299.121L213.663 299.727C216.972 305.728 219.604 312.11 221.501 318.729L221.703 319.445C223.131 324.476 225.515 329.176 228.699 333.237C231.883 337.299 235.796 340.631 240.182 343.016C247.128 346.844 253.324 352.153 258.374 358.604C263.424 365.055 267.219 372.508 269.515 380.487C272.222 389.929 269.896 404.009 267.467 414.159C266.855 416.742 265.701 419.116 264.09 421.101C262.48 423.086 260.456 424.632 258.17 425.622C256.009 426.576 253.658 426.997 251.282 426.856C248.906 426.714 246.565 426.012 244.423 424.8C248.227 429.254 252.618 433.083 257.441 436.152L258.332 436.716L257.648 437.487C251.082 444.901 242.723 450.21 233.425 452.872L232.88 453.027C218.766 457.074 207.08 466.883 200.818 479.939C197.492 486.865 192.882 492.941 187.26 497.81C181.638 502.679 175.117 506.244 168.078 508.295Z" fill="#E6E6E6"/>
<path d="M175.304 603.401C175.076 603.466 174.831 603.439 174.613 603.326C174.394 603.212 174.218 603.02 174.116 602.783C173.987 602.487 161.184 572.674 152.924 530.542C145.295 491.631 140.081 433.93 158.565 380.013C158.61 379.884 158.678 379.766 158.765 379.667C158.853 379.568 158.959 379.49 159.076 379.436C159.194 379.383 159.322 379.355 159.452 379.355C159.582 379.355 159.712 379.383 159.834 379.437C159.956 379.491 160.069 379.57 160.165 379.669C160.261 379.768 160.338 379.886 160.393 380.015C160.448 380.145 160.48 380.284 160.485 380.424C160.491 380.564 160.471 380.703 160.427 380.832C142.102 434.283 147.285 491.559 154.86 530.195C163.072 572.082 175.775 601.662 175.903 601.956C175.964 602.097 175.996 602.249 175.999 602.402C176.001 602.555 175.973 602.704 175.916 602.841C175.859 602.978 175.775 603.099 175.669 603.196C175.564 603.292 175.439 603.362 175.304 603.401L175.304 603.401Z" fill="#3F3D56"/>
<path d="M161.327 446.567C161.127 446.625 160.913 446.612 160.715 446.53C160.517 446.448 160.345 446.303 160.224 446.113C160.102 445.924 160.038 445.701 160.041 445.476C160.043 445.251 160.111 445.036 160.236 444.862C167.28 435.697 175.397 427.565 184.4 420.652C198.441 409.769 220.908 397.111 248.206 398.615C248.336 398.622 248.465 398.657 248.585 398.717C248.704 398.777 248.813 398.861 248.905 398.965C248.996 399.069 249.068 399.19 249.118 399.322C249.167 399.454 249.192 399.594 249.191 399.734C249.19 399.874 249.164 400.011 249.114 400.137C249.064 400.263 248.99 400.377 248.898 400.47C248.805 400.564 248.696 400.637 248.576 400.683C248.455 400.73 248.327 400.751 248.197 400.744C221.458 399.271 199.401 411.709 185.605 422.402C176.746 429.2 168.758 437.197 161.825 446.211C161.7 446.386 161.526 446.51 161.327 446.567Z" fill="#3F3D56"/>
<path d="M558.174 396.437C545.656 400.026 532.151 398.619 520.092 392.469C516.069 390.414 511.209 386.23 505.65 380.033C502.09 376.035 499.371 371.27 497.694 366.086C496.017 360.903 495.425 355.435 495.96 350.083C494.703 352.658 493.188 355.068 491.439 357.272L490.558 358.398L490.077 356.961C489.763 356.027 489.471 355.09 489.209 354.176C487.665 348.79 489.831 342.255 486.682 337.771C473.41 318.87 444.419 304.618 468.46 262.583C470.684 258.695 464.84 253.871 463.537 249.326C450.766 204.788 486.353 111.194 514.405 147.325C549.001 191.884 582.192 176.539 600.562 182.524L600.996 183.196L600.421 183.675C597.497 186.185 594.245 188.232 590.758 189.757C594.87 189.509 598.919 188.738 602.82 187.461L603.424 187.263L603.759 187.868C607.067 193.87 609.699 200.252 611.596 206.871L611.799 207.587C613.227 212.618 615.61 217.318 618.794 221.379C621.978 225.441 625.891 228.773 630.278 231.158C637.224 234.986 643.42 240.294 648.47 246.746C653.52 253.197 657.314 260.65 659.61 268.628C662.318 278.07 659.991 292.151 657.563 302.3C656.951 304.884 655.796 307.257 654.186 309.243C652.576 311.228 650.551 312.773 648.265 313.763C646.105 314.718 643.753 315.139 641.378 314.997C639.002 314.855 636.66 314.154 634.518 312.942C638.322 317.396 642.713 321.225 647.537 324.294L648.427 324.858L647.744 325.629C641.178 333.043 632.819 338.352 623.521 341.014L622.976 341.169C608.862 345.216 597.175 355.025 590.914 368.081C587.588 375.007 582.978 381.082 577.356 385.952C571.734 390.821 565.212 394.386 558.174 396.437Z" fill="#E6E6E6"/>
<path d="M565.399 491.543C565.172 491.608 564.927 491.581 564.708 491.468C564.49 491.354 564.314 491.162 564.211 490.925C564.083 490.629 551.28 460.816 543.019 418.683C535.391 379.773 530.177 322.072 548.661 268.155C548.705 268.026 548.773 267.908 548.861 267.809C548.949 267.71 549.054 267.631 549.172 267.578C549.29 267.524 549.418 267.497 549.548 267.497C549.678 267.497 549.807 267.525 549.93 267.579C550.052 267.633 550.164 267.711 550.26 267.811C550.356 267.91 550.434 268.028 550.489 268.157C550.544 268.287 550.575 268.426 550.581 268.566C550.587 268.706 550.567 268.844 550.522 268.974C532.197 322.425 537.381 379.7 544.956 418.336C553.168 460.224 565.871 489.804 565.998 490.098C566.059 490.239 566.092 490.391 566.094 490.544C566.097 490.696 566.068 490.846 566.011 490.983C565.955 491.12 565.871 491.241 565.765 491.338C565.659 491.434 565.535 491.504 565.399 491.543L565.399 491.543Z" fill="#3F3D56"/>
<path d="M549.439 337.574C549.239 337.631 549.025 337.618 548.827 337.537C548.629 337.455 548.457 337.309 548.336 337.12C548.215 336.93 548.151 336.707 548.153 336.483C548.155 336.258 548.223 336.043 548.348 335.869C555.392 326.704 563.509 318.571 572.512 311.659C586.553 300.776 609.021 288.118 636.318 289.621C636.448 289.629 636.577 289.663 636.697 289.723C636.816 289.783 636.925 289.868 637.017 289.972C637.108 290.076 637.18 290.197 637.23 290.329C637.279 290.461 637.304 290.601 637.303 290.74C637.303 290.88 637.276 291.017 637.226 291.144C637.176 291.27 637.102 291.383 637.01 291.477C636.918 291.571 636.808 291.643 636.688 291.69C636.567 291.737 636.439 291.757 636.309 291.75C609.57 290.278 587.513 302.716 573.717 313.409C564.858 320.206 556.87 328.204 549.937 337.218C549.813 337.392 549.638 337.517 549.439 337.574Z" fill="#3F3D56"/>
<path d="M472.507 232.457C472.431 232.244 472.417 232.014 472.47 231.798C472.522 231.583 472.637 231.395 472.798 231.259C472.959 231.124 473.159 231.05 473.367 231.046C473.576 231.043 473.783 231.111 473.96 231.24C483.29 238.578 491.791 247.096 499.265 256.598C511.016 271.415 525.41 295.246 527.243 324.635C527.252 324.775 527.235 324.915 527.194 325.045C527.152 325.176 527.087 325.295 527.002 325.396C526.916 325.497 526.812 325.578 526.696 325.634C526.579 325.691 526.452 325.721 526.323 325.724C526.193 325.727 526.063 325.702 525.939 325.651C525.816 325.601 525.702 325.524 525.605 325.427C525.507 325.33 525.427 325.215 525.369 325.086C525.311 324.958 525.277 324.82 525.268 324.68C523.472 295.893 509.331 272.497 497.784 257.939C490.434 248.588 482.074 240.206 472.896 232.984C472.72 232.854 472.584 232.67 472.507 232.457Z" fill="#3F3D56"/>
<path d="M82.5307 337.393C82.4538 337.18 82.4406 336.95 82.4928 336.735C82.545 336.519 82.66 336.331 82.8212 336.196C82.9825 336.061 83.1817 335.986 83.3904 335.983C83.5991 335.979 83.8065 336.047 83.9829 336.177C93.3136 343.515 101.814 352.033 109.288 361.534C121.039 376.351 135.433 400.182 137.267 429.572C137.276 429.712 137.259 429.851 137.217 429.981C137.176 430.112 137.11 430.231 137.025 430.332C136.939 430.433 136.835 430.514 136.719 430.571C136.602 430.627 136.476 430.657 136.346 430.66C136.216 430.663 136.086 430.639 135.963 430.588C135.839 430.537 135.726 430.461 135.628 430.364C135.53 430.267 135.45 430.151 135.392 430.023C135.335 429.894 135.3 429.756 135.292 429.616C133.495 400.829 119.354 377.433 107.808 362.875C100.458 353.524 92.0975 345.142 82.9196 337.92C82.7433 337.791 82.6071 337.606 82.5307 337.393Z" fill="#3F3D56"/>
<path d="M313.386 158.413C311.897 157.475 310.238 156.923 308.547 156.802C306.856 156.682 305.181 156.997 303.661 157.721C302.142 158.445 300.822 159.557 299.81 160.965C298.799 162.373 298.125 164.036 297.846 165.816C285.823 181.897 280.564 200.333 282.6 221.309L247.592 202.13C247.264 199.78 246.258 197.567 244.717 195.81C243.176 194.053 241.18 192.841 239.015 192.348C236.85 191.856 234.628 192.107 232.666 193.067C230.705 194.028 229.105 195.647 228.097 197.693C227.089 199.739 226.724 202.107 227.054 204.457C227.384 206.807 228.393 209.018 229.936 210.773C231.478 212.529 233.475 213.738 235.641 214.228C237.806 214.719 240.028 214.464 241.988 213.501C249.653 221.339 284.628 255.686 296.266 242.189C306.049 230.844 316.229 185.613 318.795 170.845C319.206 168.483 318.904 166.007 317.932 163.773C316.96 161.538 315.368 159.662 313.386 158.413Z" fill="#FFB6B6"/>
<path d="M319.392 176.067C319.599 171.625 319.416 166.846 317.048 163.068C314.444 158.914 309.502 156.822 304.986 157.263C300.47 157.704 296.416 160.394 293.45 163.97C290.483 167.545 288.503 171.96 286.914 176.477L287.272 175.032C285.225 180.988 283.178 186.943 281.131 192.898C291.851 197.05 302.572 201.201 313.292 205.353C316.852 196.104 318.913 186.204 319.392 176.067Z" fill="#00BFA6"/>
<path d="M379.389 528.639L366.776 532.255L345.551 480.882L364.167 475.544L379.389 528.639Z" fill="#FFB6B6"/>
<path d="M383.951 542.871L345.163 553.992L345.01 553.456C343.757 549.087 344.146 544.44 346.092 540.539C348.037 536.637 351.379 533.8 355.383 532.652L355.384 532.652L360.787 524.754L375.688 526.831L379.074 525.86L383.951 542.871Z" fill="#2F2E41"/>
<path d="M508.358 280.106L517.234 291.08L483.693 331.254L470.591 315.055L508.358 280.106Z" fill="#FFB6B6"/>
<path d="M518.258 270.266L545.557 304.015L545.177 304.367C542.068 307.244 537.968 308.618 533.778 308.189C529.588 307.759 525.65 305.561 522.832 302.078L522.831 302.077L513.672 299.774L508.541 284.41L506.158 281.464L518.258 270.266Z" fill="#2F2E41"/>
<path d="M168.452 148.373C170.798 146.782 171.805 144.023 170.701 142.212C169.596 140.401 166.798 140.222 164.451 141.813C162.104 143.405 161.097 146.163 162.202 147.974C163.307 149.785 166.105 149.964 168.452 148.373Z" fill="#E6E6E6"/>
<path d="M199.927 137.463C202.274 135.872 203.281 133.114 202.176 131.302C201.071 129.491 198.273 129.313 195.926 130.904C193.58 132.495 192.573 135.253 193.677 137.065C194.782 138.876 197.58 139.054 199.927 137.463Z" fill="#3F3D56"/>
<path d="M171.986 179.006C174.333 177.415 175.34 174.656 174.236 172.845C173.131 171.034 170.333 170.855 167.986 172.447C165.639 174.038 164.632 176.796 165.737 178.607C166.841 180.419 169.639 180.597 171.986 179.006Z" fill="#FF6584"/>
<path d="M165.406 194.122C166.523 193.585 166.787 191.717 165.996 189.95C165.204 188.182 163.656 187.185 162.539 187.721C161.421 188.258 161.157 190.126 161.949 191.893C162.741 193.661 164.289 194.659 165.406 194.122Z" fill="#E6E6E6"/>
<path d="M169.954 216.623C171.072 216.086 171.336 214.219 170.544 212.451C169.752 210.684 168.204 209.686 167.087 210.223C165.969 210.759 165.705 212.627 166.497 214.395C167.289 216.162 168.837 217.16 169.954 216.623Z" fill="#3F3D56"/>
<path d="M188.597 164.49C189.715 163.953 189.979 162.085 189.187 160.318C188.395 158.55 186.847 157.553 185.73 158.09C184.612 158.626 184.348 160.494 185.14 162.262C185.932 164.029 187.48 165.027 188.597 164.49Z" fill="#E6E6E6"/>
<path d="M170.565 163.345C171.683 162.809 171.947 160.941 171.155 159.173C170.363 157.406 168.816 156.408 167.698 156.945C166.581 157.482 166.317 159.35 167.108 161.117C167.9 162.884 169.448 163.882 170.565 163.345Z" fill="#FF6584"/>
<path d="M184.303 139.095C185.421 138.558 185.685 136.69 184.893 134.923C184.101 133.155 182.553 132.158 181.436 132.694C180.319 133.231 180.055 135.099 180.846 136.867C181.638 138.634 183.186 139.632 184.303 139.095Z" fill="#3F3D56"/>
<path d="M463.851 438.796C466.406 437.604 467.784 435.053 466.931 433.099C466.077 431.145 463.315 430.528 460.761 431.72C458.206 432.912 456.827 435.463 457.681 437.417C458.534 439.371 461.297 439.988 463.851 438.796Z" fill="#E6E6E6"/>
<path d="M431.015 444.54C433.569 443.347 434.948 440.797 434.095 438.843C433.241 436.889 430.479 436.271 427.924 437.463C425.37 438.656 423.991 441.206 424.845 443.16C425.698 445.114 428.461 445.732 431.015 444.54Z" fill="#3F3D56"/>
<path d="M464.504 408.143C467.058 406.951 468.437 404.4 467.584 402.446C466.73 400.492 463.968 399.875 461.413 401.067C458.859 402.259 457.48 404.81 458.334 406.764C459.187 408.718 461.95 409.335 464.504 408.143Z" fill="#FF6584"/>
<path d="M472.012 393.998C473.198 393.648 473.716 391.854 473.168 389.993C472.62 388.131 471.215 386.906 470.028 387.257C468.842 387.608 468.325 389.401 468.872 391.263C469.42 393.124 470.826 394.349 472.012 393.998Z" fill="#E6E6E6"/>
<path d="M470.549 371.174C471.735 370.823 472.252 369.03 471.704 367.169C471.157 365.307 469.751 364.082 468.565 364.433C467.379 364.784 466.861 366.577 467.409 368.439C467.957 370.3 469.362 371.525 470.549 371.174Z" fill="#3F3D56"/>
<path d="M444.876 419.443C446.062 419.092 446.579 417.299 446.032 415.438C445.484 413.576 444.078 412.351 442.892 412.702C441.706 413.053 441.188 414.846 441.736 416.708C442.284 418.569 443.69 419.794 444.876 419.443Z" fill="#E6E6E6"/>
<path d="M462.678 423.418C463.864 423.067 464.381 421.274 463.834 419.413C463.286 417.551 461.88 416.326 460.694 416.677C459.508 417.028 458.991 418.821 459.538 420.683C460.086 422.544 461.492 423.769 462.678 423.418Z" fill="#FF6584"/>
<path d="M445.691 445.07C446.878 444.72 447.395 442.926 446.847 441.065C446.3 439.203 444.894 437.979 443.708 438.329C442.522 438.68 442.004 440.474 442.552 442.335C443.1 444.196 444.505 445.421 445.691 445.07Z" fill="#3F3D56"/>
<path d="M330.412 282.967L325.684 295.409C326.653 298.134 326.307 299.949 323.828 300.292C323.828 300.292 325.64 305.27 322.248 304.449C318.857 303.629 320.891 308.023 320.891 308.023L319.546 311.561C319.546 311.561 320.899 316.535 318.178 315.161C315.458 313.788 316.427 319.77 316.427 319.77L314.74 324.21L297.539 369.479L352.453 501.984L370.366 495.493L340.384 374.122C340.57 370.484 341.797 368.255 344.636 368.208C345.898 368.152 346.366 367.179 346.42 365.727L348.046 363.467L369.32 333.884L425.119 391.398L500.521 313.528L487.028 298.264L430.233 339.305L422.37 318.151C419.811 317.396 419.703 315.648 420.633 313.479L418.671 308.201C420.406 306.146 418.688 304.171 416.443 302.209C412.449 300.525 411.913 297.455 413.256 293.634C413.256 293.634 404.452 252.19 389.048 250.539C373.645 248.889 330.412 282.967 330.412 282.967Z" fill="#2F2E41"/>
<path d="M319.254 141.842L302.193 147.692L297.177 164.436C295.209 181.411 298.339 198.871 306.114 214.293L321.792 245.389L327.13 270.251C323.815 275.427 324.762 280.123 330.15 284.319C330.53 303.611 368.728 283.926 404.388 266.858C402.068 258.28 397.547 250.165 389.757 242.737L374.368 170.039L348.774 151.172L331.559 145.006L319.254 141.842Z" fill="#00BFA6"/>
<path d="M341.061 156.739C339.936 158.042 339.128 159.629 338.705 161.37C338.282 163.11 338.256 164.954 338.629 166.747C339.001 168.541 339.762 170.233 340.848 171.682C341.933 173.131 343.313 174.297 344.871 175.082C351.202 189.274 368.263 199.802 392.234 206.387L368.383 237.814C366.196 237.509 364.008 237.954 362.132 239.086C360.257 240.217 358.79 241.976 357.942 244.111C357.094 246.245 356.909 248.646 357.413 250.968C357.917 253.291 359.085 255.415 360.748 257.037C362.412 258.66 364.486 259.696 366.672 259.998C368.859 260.3 371.047 259.852 372.921 258.719C374.796 257.585 376.261 255.824 377.106 253.688C377.952 251.552 378.134 249.151 377.627 246.83C386.14 240.953 423.704 213.746 413.658 197.814C405.213 184.423 366.192 161.263 353.31 154.496C351.251 153.413 348.955 153.046 346.753 153.449C344.552 153.852 342.559 155.004 341.061 156.739Z" fill="#FFB6B6"/>
<path d="M327.037 232.466C325.017 233.041 322.835 232.765 320.925 231.693C319.015 230.621 317.517 228.831 316.73 226.681L311.365 212.029C310.534 209.76 310.56 207.27 311.437 205.106C312.313 202.943 313.969 201.284 316.04 200.493L342.016 190.579C344.086 189.788 346.402 189.932 348.454 190.977C350.505 192.023 352.125 193.885 352.955 196.153L358.32 210.806C359.151 213.074 359.125 215.564 358.248 217.728C357.372 219.891 355.716 221.55 353.645 222.341L327.67 232.255C327.461 232.335 327.25 232.405 327.037 232.466Z" fill="#F2F2F2"/>
<path d="M305.238 141.98C317.758 138.39 324.732 124.403 320.814 110.74C316.896 97.0762 303.57 88.9102 291.05 92.5003C278.53 96.0904 271.556 110.077 275.474 123.74C279.392 137.404 292.718 145.57 305.238 141.98Z" fill="#FFB6B6"/>
<path d="M317.183 94.7412C315.673 93.5274 314.042 92.4823 312.64 91.1231C311.29 89.8144 310.171 88.2319 308.731 87.042C304.472 83.5227 298.632 84.2279 293.488 85.1126C290.092 85.6968 286.695 86.281 283.298 86.8651C281.365 87.1099 279.479 87.6108 277.681 88.3567C275.998 89.1636 274.53 90.3882 273.392 91.9346C272.253 93.4809 271.475 95.307 271.119 97.2698C270.725 99.5391 270.792 102.207 269.178 103.676C268.378 104.236 267.546 104.739 266.684 105.185C265.881 105.741 265.21 106.772 265.534 107.778C266.135 109.64 269.482 109.844 269.227 111.755C269.003 113.442 266.076 113.13 266.353 115.5C266.396 115.841 266.505 116.172 266.672 116.471C266.839 116.771 267.061 117.032 267.323 117.239C268.507 118.178 269.983 118.088 271.358 117.975L270.082 122.243C278.523 123.452 286.95 121.417 293.867 116.5C294.897 115.755 296.096 115.31 297.354 115.204C298.612 115.099 299.89 115.337 301.069 115.897C302.249 116.456 303.292 117.32 304.105 118.408C304.917 119.496 305.471 120.774 305.718 122.124L305.736 122.229C305.8 122.64 305.965 123.029 306.213 123.355C306.462 123.682 306.785 123.934 307.149 124.085C308.57 124.618 309.411 123.057 309.597 121.698C309.785 120.315 309.717 118.723 310.902 117.918C311.393 117.618 311.97 117.502 312.544 117.589C313.118 117.675 313.66 117.959 314.087 118.398C315.604 119.848 315.782 122.048 315.726 124.059C315.591 128.703 314.504 133.21 312.541 137.258C317.365 135.49 316.078 136.442 320.901 134.674L322.342 134.514C324.994 131.325 325.403 126.587 325.088 122.206C324.371 112.268 324.746 100.817 317.183 94.7412Z" fill="#2F2E41"/>
<path d="M354.065 150.818C350.096 149.333 345.748 148.162 341.877 149.562C337.619 151.102 334.766 155.677 334.283 160.529C333.799 165.38 335.435 170.39 338.082 174.514C340.729 178.638 344.327 181.97 348.093 184.921L346.859 184.134C351.834 187.975 356.808 191.816 361.782 195.657C367.622 185.623 373.461 175.589 379.3 165.555C371.65 159.192 363.119 154.21 354.065 150.818Z" fill="#00BFA6"/>
<path d="M416.437 532.148L416.305 531.652C414.14 523.328 413.663 514.68 414.91 506.308C416.156 497.936 419.094 490.041 423.521 483.172C426.033 479.343 428.999 475.891 432.347 472.9L432.666 472.614L432.855 473.033C435.104 478.036 437.823 483.021 439.057 485.226L438.234 468.308L438.61 468.059C440.332 466.908 442.36 466.355 444.431 466.471C446.502 466.588 448.522 467.369 450.231 468.713C451.992 470.043 453.368 471.893 454.181 474.024C454.993 476.155 455.205 478.47 454.789 480.67C454.428 482.683 454.103 484.768 453.788 486.785C452.708 493.714 451.59 500.879 448.729 507.018C446.519 511.639 443.355 515.622 439.468 518.676C435.58 521.73 431.067 523.777 426.259 524.669L416.437 532.148Z" fill="#F2F2F2"/>
<path d="M469.444 518.497L293.412 569.208C293.311 569.237 293.204 569.244 293.098 569.229C292.993 569.213 292.89 569.175 292.796 569.118C292.702 569.06 292.618 568.984 292.55 568.893C292.482 568.802 292.431 568.698 292.399 568.587C292.367 568.477 292.356 568.361 292.365 568.248C292.375 568.135 292.405 568.026 292.454 567.927C292.504 567.828 292.571 567.742 292.652 567.673C292.734 567.604 292.828 567.553 292.929 567.524L468.961 516.812C469.165 516.754 469.387 516.786 469.577 516.903C469.767 517.019 469.91 517.21 469.974 517.433C470.038 517.657 470.018 517.894 469.918 518.094C469.819 518.293 469.648 518.438 469.444 518.497Z" fill="#CACACA"/>
<path d="M634.035 471.301L532.524 500.644C532.423 500.673 532.316 500.68 532.21 500.664C532.105 500.649 532.002 500.611 531.908 500.554C531.814 500.496 531.73 500.419 531.662 500.328C531.594 500.237 531.543 500.134 531.511 500.023C531.479 499.912 531.468 499.797 531.477 499.684C531.487 499.571 531.517 499.462 531.566 499.363C531.615 499.264 531.683 499.178 531.764 499.108C531.846 499.039 531.94 498.989 532.041 498.96L633.553 469.617C633.757 469.558 633.979 469.59 634.169 469.707C634.359 469.823 634.502 470.014 634.566 470.237C634.63 470.461 634.61 470.698 634.51 470.898C634.411 471.097 634.24 471.242 634.035 471.301Z" fill="#CACACA"/>
<path d="M230.332 587.061L135.3 614.546C135.199 614.575 135.092 614.582 134.987 614.566C134.881 614.551 134.778 614.513 134.684 614.456C134.59 614.398 134.506 614.322 134.438 614.23C134.37 614.139 134.319 614.036 134.287 613.925C134.255 613.815 134.244 613.699 134.253 613.586C134.263 613.473 134.293 613.364 134.342 613.265C134.392 613.166 134.459 613.08 134.54 613.011C134.622 612.941 134.716 612.891 134.817 612.862L229.849 585.377C229.95 585.347 230.057 585.34 230.163 585.355C230.269 585.37 230.372 585.408 230.466 585.466C230.561 585.523 230.644 585.6 230.713 585.691C230.781 585.782 230.832 585.886 230.864 585.997C230.896 586.108 230.907 586.223 230.898 586.337C230.888 586.45 230.858 586.559 230.808 586.658C230.759 586.757 230.691 586.843 230.61 586.913C230.528 586.982 230.433 587.032 230.332 587.061Z" fill="#CACACA"/>
<path d="M225.081 180.015C224.707 180.122 224.362 180.313 224.066 180.575C223.771 180.836 223.532 181.164 223.365 181.537C223.198 181.909 223.106 182.319 223.095 182.739C223.084 183.16 223.154 183.582 223.302 183.98C230.135 197.39 235.233 210.585 237.919 223.481C238.189 224.201 238.695 224.798 239.337 225.156C239.979 225.515 240.712 225.607 241.39 225.417L258.834 220.415C259.511 220.217 260.083 219.75 260.437 219.106C260.792 218.462 260.904 217.687 260.752 216.933C255.691 204.601 253.281 190.574 252.216 175.689C252.13 175.273 251.966 174.878 251.734 174.527C251.502 174.176 251.207 173.878 250.867 173.65C250.528 173.423 250.152 173.272 249.763 173.206C249.374 173.141 248.98 173.162 248.606 173.269L225.081 180.015Z" fill="#00BFA6"/>
<path d="M254.241 177.477L251.005 171.104C250.71 170.524 250.244 170.062 249.685 169.795C249.126 169.528 248.507 169.472 247.932 169.637L239.808 171.967C239.743 171.858 239.659 171.763 239.562 171.686L238.306 170.713C238.188 170.621 238.053 170.559 237.912 170.529C237.771 170.5 237.627 170.505 237.491 170.544L232.474 171.983C232.338 172.022 232.213 172.094 232.109 172.193C232.005 172.293 231.924 172.418 231.872 172.558L231.322 174.048C231.281 174.165 231.261 174.29 231.263 174.417L223.727 176.578C223.153 176.742 222.658 177.118 222.325 177.641C221.992 178.164 221.842 178.802 221.899 179.45L222.532 186.569C222.57 186.989 222.693 187.399 222.894 187.769C223.095 188.139 223.368 188.46 223.693 188.709C224.019 188.957 224.388 189.127 224.774 189.205C225.161 189.284 225.555 189.269 225.927 189.162C235.281 189.665 244.217 187.102 252.735 181.475C253.108 181.368 253.45 181.172 253.736 180.901C254.022 180.629 254.246 180.29 254.39 179.907C254.534 179.524 254.595 179.107 254.57 178.686C254.544 178.266 254.431 177.853 254.241 177.477Z" fill="#3F3D56"/>
</g>
<defs>
<clipPath id="clip0_0_6">
<rect width="606.189" height="467.028" fill="white" transform="translate(0.0795898 167.796) rotate(-16)"/>
</clipPath>
</defs>
</svg>
